# Blender v2.91.2 OBJ File: ''
# www.blender.org
mtllib bottle.mtl
o Cylinder.001
v -0.000000 -0.194484 -0.207193
v -0.000000 1.400249 -0.073244
v 0.103597 -0.194484 -0.179434
v 0.036622 1.400249 -0.063431
v 0.179434 -0.194484 -0.103597
v 0.063431 1.400249 -0.036622
v 0.207193 -0.194484 0.000000
v 0.073244 1.400249 0.000000
v 0.179434 -0.194484 0.103597
v 0.063431 1.400249 0.036622
v 0.103597 -0.194484 0.179434
v 0.036622 1.400249 0.063431
v 0.000000 -0.194484 0.207193
v 0.000000 1.400249 0.073244
v -0.103596 -0.194484 0.179434
v -0.036622 1.400249 0.063431
v -0.179434 -0.194484 0.103597
v -0.063431 1.400249 0.036622
v -0.207193 -0.194484 0.000000
v -0.073244 1.400249 0.000000
v -0.179434 -0.194484 -0.103596
v -0.063431 1.400249 -0.036622
v -0.103597 -0.194484 -0.179434
v -0.036622 1.400249 -0.063431
v 0.000000 0.541547 -0.216885
v 0.108443 0.541547 -0.187828
v 0.187828 0.541547 -0.108443
v 0.216885 0.541547 0.000000
v 0.187828 0.541547 0.108443
v 0.108443 0.541547 0.187828
v 0.000000 0.541547 0.216885
v -0.108443 0.541547 0.187828
v -0.187828 0.541547 0.108443
v -0.216885 0.541547 0.000000
v -0.187828 0.541547 -0.108443
v -0.108443 0.541547 -0.187828
v -0.000000 0.896119 -0.132639
v 0.066320 0.896119 -0.114869
v 0.114869 0.896119 -0.066320
v 0.132639 0.896119 0.000000
v 0.114869 0.896119 0.066320
v 0.066320 0.896119 0.114869
v 0.000000 0.896119 0.132639
v -0.066320 0.896119 0.114869
v -0.114869 0.896119 0.066320
v -0.132639 0.896119 0.000000
v -0.114869 0.896119 -0.066319
v -0.066320 0.896119 -0.114869
v 0.093717 0.718833 -0.162323
v 0.162323 0.718833 -0.093717
v 0.187434 0.718833 0.000000
v 0.162323 0.718833 0.093717
v 0.093717 0.718833 0.162323
v 0.000000 0.718833 0.187434
v -0.093717 0.718833 0.162323
v -0.162323 0.718833 0.093717
v -0.187434 0.718833 0.000000
v -0.162323 0.718833 -0.093717
v -0.093717 0.718833 -0.162323
v -0.000000 0.718833 -0.187434
v -0.000000 1.072552 -0.088569
v 0.044284 1.072552 -0.076703
v 0.076703 1.072552 -0.044284
v 0.088569 1.072552 0.000000
v 0.076703 1.072552 0.044284
v 0.044284 1.072552 0.076703
v 0.000000 1.072552 0.088569
v -0.044284 1.072552 0.076703
v -0.076703 1.072552 0.044284
v -0.088569 1.072552 0.000000
v -0.076703 1.072552 -0.044284
v -0.044284 1.072552 -0.076703
v -0.000000 1.302780 -0.073987
v 0.036994 1.302780 -0.064075
v 0.064075 1.302780 -0.036994
v 0.073987 1.302780 0.000000
v 0.064075 1.302780 0.036994
v 0.036994 1.302780 0.064075
v 0.000000 1.302780 0.073987
v -0.036994 1.302780 0.064075
v -0.064075 1.302780 0.036994
v -0.073987 1.302780 0.000000
v -0.064075 1.302780 -0.036994
v -0.036994 1.302780 -0.064075
v -0.000000 1.317775 -0.082070
v 0.041035 1.317775 -0.071075
v 0.071075 1.317775 -0.041035
v 0.082070 1.317775 0.000000
v 0.071075 1.317775 0.041035
v 0.041035 1.317775 0.071075
v 0.000000 1.317775 0.082070
v -0.041035 1.317775 0.071075
v -0.071075 1.317775 0.041035
v -0.082070 1.317775 0.000000
v -0.071075 1.317775 -0.041035
v -0.041035 1.317775 -0.071075
v -0.000000 1.359012 -0.082628
v 0.041314 1.359012 -0.071558
v 0.071558 1.359012 -0.041314
v 0.082628 1.359012 0.000000
v 0.071558 1.359012 0.041314
v 0.041314 1.359012 0.071558
v 0.000000 1.359012 0.082628
v -0.041314 1.359012 0.071558
v -0.071558 1.359012 0.041314
v -0.082628 1.359012 0.000000
v -0.071558 1.359012 -0.041314
v -0.041314 1.359012 -0.071558
v -0.000000 1.366313 -0.076763
v 0.038382 1.366313 -0.066479
v 0.066479 1.366313 -0.038382
v 0.076763 1.366313 0.000000
v 0.066479 1.366313 0.038382
v 0.038382 1.366313 0.066479
v 0.000000 1.366313 0.076763
v -0.038382 1.366313 0.066479
v -0.066479 1.366313 0.038382
v -0.076763 1.366313 0.000000
v -0.066479 1.366313 -0.038382
v -0.038382 1.366313 -0.066479
v 0.109867 -0.147156 -0.190295
v 0.190295 -0.147156 -0.109867
v 0.219733 -0.147156 0.000000
v 0.190295 -0.147156 0.109867
v 0.109867 -0.147156 0.190295
v 0.000000 -0.147156 0.219733
v -0.109867 -0.147156 0.190295
v -0.190295 -0.147156 0.109867
v -0.219733 -0.147156 0.000000
v -0.190295 -0.147156 -0.109867
v -0.109867 -0.147156 -0.190295
v -0.000000 -0.147156 -0.219733
v -0.000000 -0.194484 -0.207193
v 0.103597 -0.194484 -0.179434
v 0.036622 1.400249 -0.063431
v -0.000000 1.400249 -0.073244
v 0.179434 -0.194484 -0.103597
v 0.063431 1.400249 -0.036622
v 0.207193 -0.194484 0.000000
v 0.073244 1.400249 0.000000
v 0.179434 -0.194484 0.103597
v 0.063431 1.400249 0.036622
v 0.103597 -0.194484 0.179434
v 0.036622 1.400249 0.063431
v 0.000000 -0.194484 0.207193
v 0.000000 1.400249 0.073244
v -0.103596 -0.194484 0.179434
v -0.036622 1.400249 0.063431
v -0.179434 -0.194484 0.103597
v -0.063431 1.400249 0.036622
v -0.207193 -0.194484 0.000000
v -0.073244 1.400249 0.000000
v -0.179434 -0.194484 -0.103596
v -0.063431 1.400249 -0.036622
v -0.103597 -0.194484 -0.179434
v -0.036622 1.400249 -0.063431
v -0.036994 1.302780 -0.064075
v -0.000000 1.302780 -0.073987
v -0.064075 1.302780 -0.036994
v -0.073987 1.302780 0.000000
v -0.064075 1.302780 0.036994
v -0.036994 1.302780 0.064075
v 0.000000 1.302780 0.073987
v 0.036994 1.302780 0.064075
v 0.064075 1.302780 0.036994
v 0.073987 1.302780 0.000000
v 0.064075 1.302780 -0.036994
v 0.036994 1.302780 -0.064075
v -0.038382 1.366313 -0.066479
v -0.000000 1.366313 -0.076763
v -0.066479 1.366313 -0.038382
v -0.076763 1.366313 0.000000
v -0.066479 1.366313 0.038382
v -0.038382 1.366313 0.066479
v 0.000000 1.366313 0.076763
v 0.038382 1.366313 0.066479
v 0.066479 1.366313 0.038382
v 0.076763 1.366313 0.000000
v 0.066479 1.366313 -0.038382
v 0.038382 1.366313 -0.066479
vt 1.000000 0.989360
vt 1.000000 1.000000
vt 0.916667 1.000000
vt 0.916667 0.989360
vt 0.833333 1.000000
vt 0.833333 0.989360
vt 0.750000 1.000000
vt 0.750000 0.989360
vt 0.666667 1.000000
vt 0.666667 0.989360
vt 0.583333 1.000000
vt 0.583333 0.989360
vt 0.500000 1.000000
vt 0.500000 0.989360
vt 0.416667 1.000000
vt 0.416667 0.989360
vt 0.333333 1.000000
vt 0.333333 0.989360
vt 0.250000 1.000000
vt 0.250000 0.989360
vt 0.166667 1.000000
vt 0.166667 0.989360
vt 0.370000 0.457846
vt 0.250000 0.490000
vt 0.130000 0.457846
vt 0.042154 0.370000
vt 0.010000 0.250000
vt 0.042154 0.130000
vt 0.130000 0.042154
vt 0.250000 0.010000
vt 0.370000 0.042154
vt 0.457846 0.130000
vt 0.490000 0.250000
vt 0.457846 0.370000
vt 0.083333 1.000000
vt 0.083333 0.989360
vt 0.000000 1.000000
vt 0.000000 0.989360
vt 0.750000 0.490000
vt 0.870000 0.457846
vt 0.957846 0.370000
vt 0.990000 0.250000
vt 0.957846 0.130000
vt 0.870000 0.042154
vt 0.750000 0.010000
vt 0.630000 0.042154
vt 0.542154 0.130000
vt 0.510000 0.250000
vt 0.542154 0.370000
vt 0.630000 0.457846
vt 0.083333 0.514839
vt 0.083333 0.730769
vt 0.000000 0.730769
vt 0.000000 0.514839
vt 0.166667 0.514839
vt 0.166667 0.730769
vt 0.250000 0.514839
vt 0.250000 0.730769
vt 0.333333 0.514839
vt 0.333333 0.730769
vt 0.416667 0.514839
vt 0.416667 0.730769
vt 0.500000 0.514839
vt 0.500000 0.730769
vt 0.583333 0.514839
vt 0.583333 0.730769
vt 0.666667 0.514839
vt 0.666667 0.730769
vt 0.750000 0.514839
vt 0.750000 0.730769
vt 0.833333 0.514839
vt 0.833333 0.730769
vt 0.916667 0.514839
vt 0.916667 0.730769
vt 1.000000 0.514839
vt 1.000000 0.730769
vt 0.083333 0.786354
vt 0.083333 0.841939
vt 0.000000 0.841939
vt 0.000000 0.786354
vt 0.166667 0.786354
vt 0.166667 0.841939
vt 0.250000 0.786354
vt 0.250000 0.841939
vt 0.333333 0.786354
vt 0.333333 0.841939
vt 0.416667 0.786354
vt 0.416667 0.841939
vt 0.500000 0.786354
vt 0.500000 0.841939
vt 0.583333 0.786354
vt 0.583333 0.841939
vt 0.666667 0.786354
vt 0.666667 0.841939
vt 0.750000 0.786354
vt 0.750000 0.841939
vt 0.833333 0.786354
vt 0.833333 0.841939
vt 0.916667 0.786354
vt 0.916667 0.841939
vt 1.000000 0.786354
vt 1.000000 0.841939
vt 0.083333 0.897256
vt 0.000000 0.897256
vt 0.166667 0.897256
vt 0.250000 0.897256
vt 0.333333 0.897256
vt 0.416667 0.897256
vt 0.500000 0.897256
vt 0.583333 0.897256
vt 0.666667 0.897256
vt 0.750000 0.897256
vt 0.833333 0.897256
vt 0.916667 0.897256
vt 1.000000 0.897256
vt 0.083333 0.969441
vt 0.000000 0.969440
vt 0.166667 0.969440
vt 0.250000 0.969441
vt 0.333333 0.969440
vt 0.416667 0.969440
vt 0.500000 0.969440
vt 0.583333 0.969440
vt 0.666667 0.969440
vt 0.750000 0.969440
vt 0.833333 0.969440
vt 0.916667 0.969441
vt 1.000000 0.969440
vt 0.083333 0.969441
vt 0.083333 0.974142
vt 0.000000 0.974142
vt 0.000000 0.969440
vt 0.166667 0.969440
vt 0.166667 0.974142
vt 0.250000 0.969441
vt 0.250000 0.974142
vt 0.333333 0.969440
vt 0.333333 0.974142
vt 0.416667 0.969440
vt 0.416667 0.974142
vt 0.500000 0.969440
vt 0.500000 0.974142
vt 0.583333 0.969440
vt 0.583333 0.974142
vt 0.666667 0.969440
vt 0.666667 0.974142
vt 0.750000 0.969440
vt 0.750000 0.974142
vt 0.833333 0.969440
vt 0.833333 0.974142
vt 0.916667 0.969441
vt 0.916667 0.974142
vt 1.000000 0.969440
vt 1.000000 0.974142
vt 0.083333 0.987071
vt 0.000000 0.987071
vt 0.166667 0.987071
vt 0.250000 0.987071
vt 0.333333 0.987071
vt 0.416667 0.987071
vt 0.500000 0.987071
vt 0.583333 0.987071
vt 0.666667 0.987071
vt 0.750000 0.987071
vt 0.833333 0.987071
vt 0.916667 0.987071
vt 1.000000 0.987071
vt 0.083333 0.989360
vt 0.000000 0.989360
vt 0.166667 0.989360
vt 0.250000 0.989360
vt 0.333333 0.989360
vt 0.416667 0.989360
vt 0.500000 0.989360
vt 0.583333 0.989360
vt 0.666667 0.989360
vt 0.750000 0.989360
vt 0.833333 0.989360
vt 0.916667 0.989360
vt 1.000000 0.989360
vt 1.000000 0.500000
vt 0.916667 0.500000
vt 0.833333 0.500000
vt 0.750000 0.500000
vt 0.666667 0.500000
vt 0.583333 0.500000
vt 0.500000 0.500000
vt 0.416667 0.500000
vt 0.333333 0.500000
vt 0.250000 0.500000
vt 0.166667 0.500000
vt 0.083333 0.500000
vt 0.000000 0.500000
vn 0.0000 0.1031 -0.9947
vn 0.4973 0.1031 -0.8614
vn 0.8614 0.1031 -0.4973
vn 0.9947 0.1031 0.0000
vn 0.8614 0.1031 0.4973
vn 0.4973 0.1031 0.8614
vn 0.0000 0.1031 0.9947
vn -0.4973 0.1031 0.8614
vn -0.8614 0.1031 0.4973
vn -0.9947 0.1031 0.0000
vn -0.8614 0.1031 -0.4973
vn 0.0000 1.0000 0.0000
vn -0.4973 0.1031 -0.8614
vn 0.0000 -1.0000 0.0000
vn -0.4961 -0.1244 -0.8593
vn -0.4982 0.0832 -0.8630
vn 0.0000 0.0832 -0.9965
vn 0.0000 -0.1244 -0.9922
vn -0.8593 -0.1244 -0.4961
vn -0.8630 0.0832 -0.4982
vn -0.9922 -0.1244 0.0000
vn -0.9965 0.0832 0.0000
vn -0.8593 -0.1244 0.4961
vn -0.8630 0.0832 0.4982
vn -0.4961 -0.1244 0.8593
vn -0.4982 0.0832 0.8630
vn 0.0000 -0.1244 0.9922
vn 0.0000 0.0832 0.9965
vn 0.4961 -0.1244 0.8593
vn 0.4982 0.0832 0.8630
vn 0.8593 -0.1244 0.4961
vn 0.8630 0.0832 0.4982
vn 0.9922 -0.1244 0.0000
vn 0.9965 0.0832 0.0000
vn 0.8593 -0.1244 -0.4961
vn 0.8630 0.0832 -0.4982
vn 0.4961 -0.1244 -0.8593
vn 0.4982 0.0832 -0.8630
vn -0.4869 0.2276 -0.8433
vn -0.4814 0.2701 -0.8338
vn 0.0000 0.2701 -0.9628
vn 0.0000 0.2276 -0.9737
vn -0.8433 0.2276 -0.4869
vn -0.8338 0.2701 -0.4814
vn -0.9737 0.2276 0.0000
vn -0.9628 0.2701 0.0000
vn -0.8433 0.2276 0.4869
vn -0.8338 0.2701 0.4814
vn -0.4869 0.2276 0.8433
vn -0.4814 0.2701 0.8338
vn 0.0000 0.2276 0.9737
vn 0.0000 0.2701 0.9628
vn 0.4869 0.2276 0.8433
vn 0.4814 0.2701 0.8338
vn 0.8433 0.2276 0.4869
vn 0.8338 0.2701 0.4814
vn 0.9737 0.2276 0.0000
vn 0.9628 0.2701 0.0000
vn 0.8433 0.2276 -0.4869
vn 0.8338 0.2701 -0.4814
vn 0.4869 0.2276 -0.8433
vn 0.4814 0.2701 -0.8338
vn -0.4939 0.1557 -0.8554
vn 0.0000 0.1557 -0.9878
vn -0.8554 0.1557 -0.4939
vn -0.9878 0.1557 0.0000
vn -0.8554 0.1557 0.4939
vn -0.4939 0.1557 0.8554
vn 0.0000 0.1557 0.9878
vn 0.4939 0.1557 0.8554
vn 0.8554 0.1557 0.4939
vn 0.9878 0.1557 0.0000
vn 0.8554 0.1557 -0.4939
vn 0.4939 0.1557 -0.8554
vn -0.4990 0.0632 -0.8643
vn 0.0000 0.0632 -0.9980
vn -0.8643 0.0632 -0.4990
vn -0.9980 0.0632 0.0000
vn -0.8643 0.0632 0.4990
vn -0.4990 0.0632 0.8643
vn 0.0000 0.0632 0.9980
vn 0.4990 0.0632 0.8643
vn 0.8643 0.0632 0.4990
vn 0.9980 0.0632 0.0000
vn 0.8643 0.0632 -0.4990
vn 0.4990 0.0632 -0.8643
vn -0.4401 -0.4745 -0.7623
vn -0.4851 -0.2422 -0.8402
vn 0.0000 -0.2422 -0.9702
vn 0.0000 -0.4745 -0.8802
vn -0.7623 -0.4745 -0.4401
vn -0.8402 -0.2422 -0.4851
vn -0.8802 -0.4745 0.0000
vn -0.9702 -0.2422 0.0000
vn -0.7623 -0.4745 0.4401
vn -0.8402 -0.2422 0.4851
vn -0.4401 -0.4745 0.7623
vn -0.4851 -0.2422 0.8402
vn 0.0000 -0.4745 0.8802
vn 0.0000 -0.2422 0.9702
vn 0.4401 -0.4745 0.7623
vn 0.4851 -0.2422 0.8402
vn 0.7623 -0.4745 0.4401
vn 0.8402 -0.2422 0.4851
vn 0.8802 -0.4745 0.0000
vn 0.9702 -0.2422 0.0000
vn 0.7623 -0.4745 -0.4401
vn 0.8402 -0.2422 -0.4851
vn 0.4401 -0.4745 -0.7623
vn 0.4851 -0.2422 -0.8402
vn -0.4754 0.3095 -0.8235
vn 0.0000 0.3095 -0.9509
vn -0.8235 0.3095 -0.4754
vn -0.9509 0.3095 0.0000
vn -0.8235 0.3095 0.4754
vn -0.4754 0.3095 0.8235
vn 0.0000 0.3095 0.9509
vn 0.4754 0.3095 0.8235
vn 0.8235 0.3095 0.4754
vn 0.9509 0.3095 0.0000
vn 0.8235 0.3095 -0.4754
vn 0.4754 0.3095 -0.8235
vn -0.3898 0.6262 -0.6752
vn 0.0000 0.6262 -0.7796
vn -0.6752 0.6262 -0.3898
vn -0.7796 0.6262 0.0000
vn -0.6752 0.6262 0.3898
vn -0.3898 0.6262 0.6752
vn 0.0000 0.6262 0.7796
vn 0.3898 0.6262 0.6752
vn 0.6752 0.6262 0.3898
vn 0.7796 0.6262 0.0000
vn 0.6752 0.6262 -0.3898
vn 0.3898 0.6262 -0.6752
vn 0.0000 -0.2561 -0.9666
vn 0.4833 -0.2561 -0.8371
vn 0.8371 -0.2561 -0.4833
vn 0.9666 -0.2561 0.0000
vn 0.8371 -0.2561 0.4833
vn 0.4833 -0.2561 0.8371
vn 0.0000 -0.2561 0.9666
vn -0.4833 -0.2561 0.8371
vn -0.8371 -0.2561 0.4833
vn -0.9666 -0.2561 0.0000
vn -0.8371 -0.2561 -0.4833
vn -0.4833 -0.2561 -0.8371
usemtl None
s 1
f 170/1/1 136/2/1 135/3/2 110/4/2
f 110/4/2 135/3/2 138/5/3 111/6/3
f 111/6/3 138/5/3 140/7/4 112/8/4
f 112/8/4 140/7/4 142/9/5 113/10/5
f 113/10/5 142/9/5 144/11/6 114/12/6
f 114/12/6 144/11/6 146/13/7 115/14/7
f 115/14/7 146/13/7 148/15/8 116/16/8
f 116/16/8 148/15/8 150/17/9 117/18/9
f 117/18/9 150/17/9 152/19/10 118/20/10
f 118/20/10 152/19/10 154/21/11 119/22/11
f 4/23/12 2/24/12 156/25/12 22/26/12 20/27/12 18/28/12 16/29/12 14/30/12 12/31/12 10/32/12 8/33/12 6/34/12
f 119/22/11 154/21/11 24/35/13 120/36/13
f 120/36/13 24/35/13 136/37/1 170/38/1
f 133/39/14 134/40/14 137/41/14 139/42/14 141/43/14 143/44/14 145/45/14 147/46/14 149/47/14 151/48/14 153/49/14 155/50/14
f 131/51/15 36/52/16 25/53/17 132/54/18
f 130/55/19 35/56/20 36/52/16 131/51/15
f 129/57/21 34/58/22 35/56/20 130/55/19
f 128/59/23 33/60/24 34/58/22 129/57/21
f 127/61/25 32/62/26 33/60/24 128/59/23
f 126/63/27 31/64/28 32/62/26 127/61/25
f 125/65/29 30/66/30 31/64/28 126/63/27
f 124/67/31 29/68/32 30/66/30 125/65/29
f 123/69/33 28/70/34 29/68/32 124/67/31
f 122/71/35 27/72/36 28/70/34 123/69/33
f 121/73/37 26/74/38 27/72/36 122/71/35
f 132/75/18 25/76/17 26/74/38 121/73/37
f 59/77/39 48/78/40 37/79/41 60/80/42
f 58/81/43 47/82/44 48/78/40 59/77/39
f 57/83/45 46/84/46 47/82/44 58/81/43
f 56/85/47 45/86/48 46/84/46 57/83/45
f 55/87/49 44/88/50 45/86/48 56/85/47
f 54/89/51 43/90/52 44/88/50 55/87/49
f 53/91/53 42/92/54 43/90/52 54/89/51
f 52/93/55 41/94/56 42/92/54 53/91/53
f 51/95/57 40/96/58 41/94/56 52/93/55
f 50/97/59 39/98/60 40/96/58 51/95/57
f 49/99/61 38/100/62 39/98/60 50/97/59
f 60/101/42 37/102/41 38/100/62 49/99/61
f 25/76/17 60/101/42 49/99/61 26/74/38
f 26/74/38 49/99/61 50/97/59 27/72/36
f 27/72/36 50/97/59 51/95/57 28/70/34
f 28/70/34 51/95/57 52/93/55 29/68/32
f 29/68/32 52/93/55 53/91/53 30/66/30
f 30/66/30 53/91/53 54/89/51 31/64/28
f 31/64/28 54/89/51 55/87/49 32/62/26
f 32/62/26 55/87/49 56/85/47 33/60/24
f 33/60/24 56/85/47 57/83/45 34/58/22
f 34/58/22 57/83/45 58/81/43 35/56/20
f 35/56/20 58/81/43 59/77/39 36/52/16
f 36/52/16 59/77/39 60/80/42 25/53/17
f 48/78/40 72/103/63 61/104/64 37/79/41
f 47/82/44 71/105/65 72/103/63 48/78/40
f 46/84/46 70/106/66 71/105/65 47/82/44
f 45/86/48 69/107/67 70/106/66 46/84/46
f 44/88/50 68/108/68 69/107/67 45/86/48
f 43/90/52 67/109/69 68/108/68 44/88/50
f 42/92/54 66/110/70 67/109/69 43/90/52
f 41/94/56 65/111/71 66/110/70 42/92/54
f 40/96/58 64/112/72 65/111/71 41/94/56
f 39/98/60 63/113/73 64/112/72 40/96/58
f 38/100/62 62/114/74 63/113/73 39/98/60
f 37/102/41 61/115/64 62/114/74 38/100/62
f 72/103/63 157/116/75 158/117/76 61/104/64
f 71/105/65 159/118/77 157/116/75 72/103/63
f 70/106/66 160/119/78 159/118/77 71/105/65
f 69/107/67 161/120/79 160/119/78 70/106/66
f 68/108/68 162/121/80 161/120/79 69/107/67
f 67/109/69 163/122/81 162/121/80 68/108/68
f 66/110/70 164/123/82 163/122/81 67/109/69
f 65/111/71 165/124/83 164/123/82 66/110/70
f 64/112/72 166/125/84 165/124/83 65/111/71
f 63/113/73 167/126/85 166/125/84 64/112/72
f 62/114/74 168/127/86 167/126/85 63/113/73
f 61/115/64 158/128/76 168/127/86 62/114/74
f 84/129/87 96/130/88 85/131/89 73/132/90
f 83/133/91 95/134/92 96/130/88 84/129/87
f 82/135/93 94/136/94 95/134/92 83/133/91
f 81/137/95 93/138/96 94/136/94 82/135/93
f 80/139/97 92/140/98 93/138/96 81/137/95
f 79/141/99 91/142/100 92/140/98 80/139/97
f 78/143/101 90/144/102 91/142/100 79/141/99
f 77/145/103 89/146/104 90/144/102 78/143/101
f 76/147/105 88/148/106 89/146/104 77/145/103
f 75/149/107 87/150/108 88/148/106 76/147/105
f 74/151/109 86/152/110 87/150/108 75/149/107
f 73/153/90 85/154/89 86/152/110 74/151/109
f 96/130/88 108/155/111 97/156/112 85/131/89
f 95/134/92 107/157/113 108/155/111 96/130/88
f 94/136/94 106/158/114 107/157/113 95/134/92
f 93/138/96 105/159/115 106/158/114 94/136/94
f 92/140/98 104/160/116 105/159/115 93/138/96
f 91/142/100 103/161/117 104/160/116 92/140/98
f 90/144/102 102/162/118 103/161/117 91/142/100
f 89/146/104 101/163/119 102/162/118 90/144/102
f 88/148/106 100/164/120 101/163/119 89/146/104
f 87/150/108 99/165/121 100/164/120 88/148/106
f 86/152/110 98/166/122 99/165/121 87/150/108
f 85/154/89 97/167/112 98/166/122 86/152/110
f 108/155/111 169/168/123 109/169/124 97/156/112
f 107/157/113 171/170/125 169/168/123 108/155/111
f 106/158/114 172/171/126 171/170/125 107/157/113
f 105/159/115 173/172/127 172/171/126 106/158/114
f 104/160/116 174/173/128 173/172/127 105/159/115
f 103/161/117 175/174/129 174/173/128 104/160/116
f 102/162/118 176/175/130 175/174/129 103/161/117
f 101/163/119 177/176/131 176/175/130 102/162/118
f 100/164/120 178/177/132 177/176/131 101/163/119
f 99/165/121 179/178/133 178/177/132 100/164/120
f 98/166/122 180/179/134 179/178/133 99/165/121
f 97/167/112 109/180/124 180/179/134 98/166/122
f 1/181/135 132/75/18 121/73/37 3/182/136
f 3/182/136 121/73/37 122/71/35 5/183/137
f 5/183/137 122/71/35 123/69/33 7/184/138
f 7/184/138 123/69/33 124/67/31 9/185/139
f 9/185/139 124/67/31 125/65/29 11/186/140
f 11/186/140 125/65/29 126/63/27 13/187/141
f 13/187/141 126/63/27 127/61/25 15/188/142
f 15/188/142 127/61/25 128/59/23 17/189/143
f 17/189/143 128/59/23 129/57/21 19/190/144
f 19/190/144 129/57/21 130/55/19 21/191/145
f 21/191/145 130/55/19 131/51/15 23/192/146
f 23/192/146 131/51/15 132/54/18 1/193/135
