# Blender v2.91.2 OBJ File: ''
# www.blender.org
mtllib bottle.mtl
o Cylinder.001
v -0.179434 -0.796091 -0.103596
v -0.063431 0.798642 -0.036622
v -0.103597 -0.796091 -0.179434
v -0.036622 0.798642 -0.063431
v -0.000000 -0.796091 -0.207193
v -0.000000 0.798642 -0.073244
v 0.103596 -0.796091 -0.179434
v 0.036622 0.798642 -0.063431
v 0.179434 -0.796091 -0.103597
v 0.063431 0.798642 -0.036622
v -0.187828 -0.060060 -0.108443
v -0.108443 -0.060060 -0.187828
v -0.000000 -0.060060 -0.216885
v 0.108443 -0.060060 -0.187828
v 0.187828 -0.060060 -0.108443
v -0.114869 0.294512 -0.066320
v -0.066320 0.294512 -0.114869
v -0.000000 0.294512 -0.132639
v 0.066319 0.294512 -0.114869
v 0.114869 0.294512 -0.066320
v -0.162323 0.117226 -0.093717
v -0.093717 0.117226 -0.162323
v -0.000000 0.117226 -0.187434
v 0.093717 0.117226 -0.162323
v 0.162323 0.117226 -0.093717
v -0.076703 0.470945 -0.044284
v -0.044284 0.470945 -0.076703
v -0.000000 0.470945 -0.088569
v 0.044284 0.470945 -0.076703
v 0.076703 0.470945 -0.044284
v -0.064075 0.701174 -0.036994
v -0.036994 0.701174 -0.064075
v -0.000000 0.701174 -0.073987
v 0.036994 0.701174 -0.064075
v 0.064075 0.701174 -0.036994
v -0.071075 0.716169 -0.041035
v -0.041035 0.716169 -0.071075
v -0.000000 0.716169 -0.082070
v 0.041035 0.716169 -0.071075
v 0.071075 0.716169 -0.041035
v -0.071558 0.757406 -0.041314
v -0.041314 0.757406 -0.071558
v -0.000000 0.757406 -0.082628
v 0.041314 0.757406 -0.071558
v 0.071558 0.757406 -0.041314
v -0.066479 0.764706 -0.038382
v -0.038382 0.764706 -0.066479
v -0.000000 0.764706 -0.076763
v 0.038382 0.764706 -0.066479
v 0.066479 0.764706 -0.038382
v -0.190295 -0.748763 -0.109867
v -0.109867 -0.748763 -0.190295
v -0.000000 -0.748763 -0.219733
v 0.109867 -0.748763 -0.190295
v 0.190295 -0.748763 -0.109867
v -0.189061 -0.404412 -0.109155
v -0.109155 -0.404412 -0.189061
v -0.000000 -0.404412 -0.218309
v 0.109155 -0.404412 -0.189061
v 0.189061 -0.404412 -0.109155
v -0.207193 -0.796091 0.000000
v -0.073244 0.798642 0.000000
v -0.179434 -0.796091 0.103597
v -0.063431 0.798642 0.036622
v -0.103596 -0.796091 0.179434
v -0.036622 0.798642 0.063431
v 0.000000 -0.796091 0.207193
v 0.000000 0.798642 0.073244
v 0.103597 -0.796091 0.179434
v 0.036622 0.798642 0.063431
v 0.179434 -0.796091 0.103597
v 0.063431 0.798642 0.036622
v 0.207193 -0.796091 -0.000000
v 0.073244 0.798642 -0.000000
v -0.216885 -0.060060 0.000000
v -0.187828 -0.060060 0.108443
v -0.108443 -0.060060 0.187828
v 0.000000 -0.060060 0.216885
v 0.108443 -0.060060 0.187828
v 0.187828 -0.060060 0.108443
v 0.216885 -0.060060 -0.000000
v -0.132639 0.294512 0.000000
v -0.114869 0.294512 0.066320
v -0.066320 0.294512 0.114869
v 0.000000 0.294512 0.132639
v 0.066320 0.294512 0.114869
v 0.114869 0.294512 0.066320
v 0.132639 0.294512 -0.000000
v -0.187434 0.117226 0.000000
v -0.162323 0.117226 0.093717
v -0.093717 0.117226 0.162323
v 0.000000 0.117226 0.187434
v 0.093717 0.117226 0.162323
v 0.162323 0.117226 0.093717
v 0.187434 0.117226 -0.000000
v -0.088569 0.470945 0.000000
v -0.076703 0.470945 0.044284
v -0.044284 0.470945 0.076703
v 0.000000 0.470945 0.088569
v 0.044284 0.470945 0.076703
v 0.076703 0.470945 0.044284
v 0.088569 0.470945 -0.000000
v -0.073987 0.701174 0.000000
v -0.064075 0.701174 0.036994
v -0.036994 0.701174 0.064075
v 0.000000 0.701174 0.073987
v 0.036994 0.701174 0.064075
v 0.064075 0.701174 0.036994
v 0.073987 0.701174 -0.000000
v -0.082070 0.716169 0.000000
v -0.071075 0.716169 0.041035
v -0.041035 0.716169 0.071075
v 0.000000 0.716169 0.082070
v 0.041035 0.716169 0.071075
v 0.071075 0.716169 0.041035
v 0.082070 0.716169 -0.000000
v -0.082628 0.757406 0.000000
v -0.071558 0.757406 0.041314
v -0.041314 0.757406 0.071558
v 0.000000 0.757406 0.082628
v 0.041314 0.757406 0.071558
v 0.071558 0.757406 0.041314
v 0.082628 0.757406 -0.000000
v -0.076763 0.764706 0.000000
v -0.066479 0.764706 0.038382
v -0.038382 0.764706 0.066479
v 0.000000 0.764706 0.076763
v 0.038382 0.764706 0.066479
v 0.066479 0.764706 0.038382
v 0.076763 0.764706 -0.000000
v -0.219733 -0.748763 0.000000
v -0.190295 -0.748763 0.109867
v -0.109867 -0.748763 0.190295
v 0.000000 -0.748763 0.219733
v 0.109867 -0.748763 0.190295
v 0.190295 -0.748763 0.109867
v 0.219733 -0.748763 -0.000000
v -0.000000 0.798642 0.000000
v -0.000000 -0.796091 0.000000
v -0.218309 -0.404412 0.000000
v -0.189061 -0.404412 0.109155
v -0.109155 -0.404412 0.189061
v 0.000000 -0.404412 0.218309
v 0.109155 -0.404412 0.189061
v 0.189061 -0.404412 0.109155
v 0.218309 -0.404412 -0.000000
v -0.187828 -0.060060 -0.110158
v -0.108443 -0.060060 -0.189544
v -0.000000 -0.060060 -0.218601
v 0.108443 -0.060060 -0.189544
v 0.187828 -0.060060 -0.110159
v -0.189061 -0.404412 -0.110870
v -0.109155 -0.404412 -0.190777
v -0.000000 -0.404412 -0.220025
v 0.109155 -0.404412 -0.190777
v 0.189061 -0.404412 -0.110871
v -0.207193 -0.796091 0.000000
v -0.179434 -0.796091 -0.103596
v -0.063431 0.798642 -0.036622
v -0.073244 0.798642 0.000000
v -0.103597 -0.796091 -0.179434
v -0.036622 0.798642 -0.063431
v -0.000000 -0.796091 -0.207193
v -0.000000 0.798642 -0.073244
v 0.103596 -0.796091 -0.179434
v 0.036622 0.798642 -0.063431
v 0.179434 -0.796091 -0.103597
v 0.063431 0.798642 -0.036622
v 0.207193 -0.796091 -0.000000
v 0.073244 0.798642 -0.000000
v 0.064075 0.701174 -0.036994
v 0.073987 0.701174 -0.000000
v 0.036994 0.701174 -0.064075
v -0.000000 0.701174 -0.073987
v -0.036994 0.701174 -0.064075
v -0.064075 0.701174 -0.036994
v -0.073987 0.701174 0.000000
v 0.066479 0.764706 -0.038382
v 0.076763 0.764706 -0.000000
v 0.038382 0.764706 -0.066479
v -0.000000 0.764706 -0.076763
v -0.038382 0.764706 -0.066479
v -0.066479 0.764706 -0.038382
v -0.076763 0.764706 0.000000
v -0.179434 -0.796091 0.103597
v -0.063431 0.798642 0.036622
v -0.103596 -0.796091 0.179434
v -0.036622 0.798642 0.063431
v 0.000000 -0.796091 0.207193
v 0.000000 0.798642 0.073244
v 0.103597 -0.796091 0.179434
v 0.036622 0.798642 0.063431
v 0.179434 -0.796091 0.103597
v 0.063431 0.798642 0.036622
v 0.064075 0.701174 0.036994
v 0.036994 0.701174 0.064075
v 0.000000 0.701174 0.073987
v -0.036994 0.701174 0.064075
v -0.064075 0.701174 0.036994
v 0.066479 0.764706 0.038382
v 0.038382 0.764706 0.066479
v 0.000000 0.764706 0.076763
v -0.038382 0.764706 0.066479
v -0.066479 0.764706 0.038382
vt 0.411020 0.870170
vt 0.407340 0.892720
vt 0.381936 0.889383
vt 0.383925 0.866521
vt 0.356632 0.887493
vt 0.357449 0.864912
vt 0.331548 0.886766
vt 0.331390 0.864382
vt 0.306619 0.887202
vt 0.305365 0.864848
vt 0.281862 0.889063
vt 0.279221 0.866463
vt 0.256939 0.892720
vt 0.253051 0.870387
vt 0.580950 0.308976
vt 0.584821 0.541948
vt 0.506612 0.551831
vt 0.501461 0.312296
vt 0.657828 0.306148
vt 0.660198 0.535622
vt 0.733505 0.304877
vt 0.734134 0.533091
vt 0.809035 0.305282
vt 0.808210 0.534259
vt 0.885313 0.306972
vt 0.883956 0.539050
vt 0.963629 0.308999
vt 0.962870 0.547263
vt 0.603366 0.663691
vt 0.633993 0.792675
vt 0.585551 0.807434
vt 0.536415 0.680227
vt 0.669056 0.654217
vt 0.683861 0.784166
vt 0.734171 0.650968
vt 0.734266 0.781638
vt 0.799541 0.653631
vt 0.784749 0.784995
vt 0.866092 0.662525
vt 0.834862 0.794388
vt 0.935205 0.678942
vt 0.883938 0.810178
vt 0.665629 0.923817
vt 0.633088 0.933780
vt 0.699070 0.917995
vt 0.733004 0.916353
vt 0.766943 0.918889
vt 0.800394 0.925585
vt 0.832826 0.936397
vt 0.269539 0.658638
vt 0.277097 0.822267
vt 0.249390 0.822736
vt 0.238390 0.660339
vt 0.300735 0.657685
vt 0.304688 0.821532
vt 0.331932 0.657467
vt 0.332079 0.821312
vt 0.363106 0.657975
vt 0.359406 0.821828
vt 0.394240 0.659192
vt 0.386566 0.822935
vt 0.426504 0.661315
vt 0.413166 0.823465
vt 0.277097 0.822267
vt 0.277527 0.834218
vt 0.248148 0.835221
vt 0.249390 0.822736
vt 0.304688 0.821532
vt 0.305025 0.833085
vt 0.332079 0.821312
vt 0.332120 0.832771
vt 0.359406 0.821828
vt 0.359175 0.833242
vt 0.386566 0.822935
vt 0.386378 0.834187
vt 0.413166 0.823465
vt 0.414403 0.834628
vt 0.278588 0.860619
vt 0.251181 0.864683
vt 0.305098 0.858927
vt 0.331366 0.858468
vt 0.357645 0.858940
vt 0.384450 0.860276
vt 0.412953 0.863711
vt 0.279221 0.866463
vt 0.253051 0.870387
vt 0.305365 0.864848
vt 0.331390 0.864382
vt 0.357449 0.864912
vt 0.383925 0.866521
vt 0.411020 0.870170
vt 0.960130 0.036868
vt 0.964388 0.070735
vt 0.886670 0.074894
vt 0.885489 0.041256
vt 0.809859 0.076305
vt 0.809607 0.042227
vt 0.732875 0.076663
vt 0.732896 0.042325
vt 0.655458 0.076675
vt 0.655740 0.042095
vt 0.577079 0.076003
vt 0.578228 0.041014
vt 0.496309 0.072760
vt 0.500285 0.036868
vt 0.146206 0.899538
vt 0.196739 0.899538
vt 0.152977 0.924804
vt 0.196739 0.849005
vt 0.171473 0.855775
vt 0.171473 0.943300
vt 0.152977 0.874272
vt 0.196739 0.950070
vt 0.131135 0.182204
vt 0.274080 0.182204
vt 0.150286 0.253677
vt 0.274080 0.039258
vt 0.202608 0.058409
vt 0.150286 0.110731
vt 0.202607 0.305998
vt 0.274080 0.325150
vt 0.383925 0.866521
vt 0.381936 0.889383
vt 0.357449 0.864912
vt 0.356632 0.887493
vt 0.331390 0.864382
vt 0.331548 0.886766
vt 0.305365 0.864848
vt 0.306619 0.887202
vt 0.279221 0.866463
vt 0.281862 0.889063
vt 0.580950 0.308976
vt 0.584821 0.541948
vt 0.657828 0.306148
vt 0.660198 0.535622
vt 0.733505 0.304877
vt 0.734134 0.533091
vt 0.809035 0.305282
vt 0.808210 0.534259
vt 0.885313 0.306972
vt 0.883956 0.539050
vt 0.603366 0.663691
vt 0.633993 0.792675
vt 0.669056 0.654217
vt 0.683861 0.784166
vt 0.734171 0.650968
vt 0.734266 0.781638
vt 0.799541 0.653631
vt 0.784749 0.784995
vt 0.866092 0.662525
vt 0.834862 0.794388
vt 0.665629 0.923817
vt 0.699070 0.917995
vt 0.733004 0.916353
vt 0.766943 0.918889
vt 0.800394 0.925585
vt 0.269539 0.658638
vt 0.277097 0.822267
vt 0.300735 0.657685
vt 0.304688 0.821532
vt 0.331932 0.657467
vt 0.332079 0.821312
vt 0.363106 0.657975
vt 0.359406 0.821828
vt 0.394240 0.659192
vt 0.386566 0.822935
vt 0.277097 0.822267
vt 0.277527 0.834218
vt 0.304688 0.821532
vt 0.305025 0.833085
vt 0.332079 0.821312
vt 0.332120 0.832771
vt 0.359406 0.821828
vt 0.359175 0.833242
vt 0.386566 0.822935
vt 0.386378 0.834187
vt 0.278588 0.860619
vt 0.305098 0.858927
vt 0.331366 0.858468
vt 0.357645 0.858940
vt 0.384450 0.860276
vt 0.279221 0.866463
vt 0.305365 0.864848
vt 0.331390 0.864382
vt 0.357449 0.864912
vt 0.383925 0.866521
vt 0.885489 0.041256
vt 0.886670 0.074894
vt 0.809607 0.042227
vt 0.809859 0.076305
vt 0.732896 0.042325
vt 0.732875 0.076663
vt 0.655740 0.042095
vt 0.655458 0.076675
vt 0.578228 0.041014
vt 0.577079 0.076003
vt 0.146206 0.899538
vt 0.152977 0.924804
vt 0.171473 0.855775
vt 0.171473 0.943300
vt 0.152977 0.874272
vt 0.131135 0.182204
vt 0.150286 0.253677
vt 0.202608 0.058409
vt 0.150286 0.110731
vt 0.202607 0.305998
vt 0.158298 0.369590
vt 0.157734 0.599469
vt 0.082788 0.599365
vt 0.082859 0.369486
vt 0.233736 0.369856
vt 0.232680 0.599733
vt 0.309173 0.370283
vt 0.307625 0.600157
vt 0.384609 0.370871
vt 0.382569 0.600742
vn -0.9947 0.1031 0.0000
vn -0.8614 0.1031 -0.4973
vn -0.4973 0.1031 -0.8614
vn 0.0000 0.1031 -0.9947
vn 0.4973 0.1031 -0.8614
vn 0.8614 0.1031 -0.4973
vn 0.9947 0.1031 0.0000
vn 0.8660 0.0041 -0.5000
vn 0.8630 0.0832 -0.4982
vn 0.9965 0.0832 0.0000
vn 1.0000 0.0041 0.0000
vn 0.5000 0.0041 -0.8660
vn 0.4982 0.0832 -0.8630
vn 0.0000 0.0041 -1.0000
vn 0.0000 0.0832 -0.9965
vn -0.5000 0.0041 -0.8660
vn -0.4982 0.0832 -0.8630
vn -0.8660 0.0041 -0.5000
vn -0.8630 0.0832 -0.4982
vn -1.0000 0.0041 0.0000
vn -0.9965 0.0832 0.0000
vn 0.8433 0.2276 -0.4869
vn 0.8338 0.2701 -0.4814
vn 0.9628 0.2701 0.0000
vn 0.9737 0.2276 0.0000
vn 0.4869 0.2276 -0.8433
vn 0.4814 0.2701 -0.8338
vn 0.0000 0.2276 -0.9737
vn 0.0000 0.2701 -0.9628
vn -0.4869 0.2276 -0.8433
vn -0.4814 0.2701 -0.8338
vn -0.8433 0.2276 -0.4869
vn -0.8338 0.2701 -0.4814
vn -0.9737 0.2276 0.0000
vn -0.9628 0.2701 0.0000
vn 0.8554 0.1557 -0.4939
vn 0.9878 0.1557 0.0000
vn 0.4939 0.1557 -0.8554
vn 0.0000 0.1557 -0.9878
vn -0.4939 0.1557 -0.8554
vn -0.8554 0.1557 -0.4939
vn -0.9878 0.1557 0.0000
vn 0.8643 0.0632 -0.4990
vn 0.9980 0.0632 0.0000
vn 0.4990 0.0632 -0.8643
vn 0.0000 0.0632 -0.9980
vn -0.4990 0.0632 -0.8643
vn -0.8643 0.0632 -0.4990
vn -0.9980 0.0632 0.0000
vn 0.7623 -0.4745 -0.4401
vn 0.8402 -0.2422 -0.4851
vn 0.9702 -0.2422 0.0000
vn 0.8802 -0.4745 0.0000
vn 0.4401 -0.4745 -0.7623
vn 0.4851 -0.2422 -0.8402
vn 0.0000 -0.4745 -0.8802
vn 0.0000 -0.2422 -0.9702
vn -0.4401 -0.4745 -0.7623
vn -0.4851 -0.2422 -0.8402
vn -0.7623 -0.4745 -0.4401
vn -0.8402 -0.2422 -0.4851
vn -0.8802 -0.4745 0.0000
vn -0.9702 -0.2422 0.0000
vn 0.8235 0.3095 -0.4754
vn 0.9509 0.3095 0.0000
vn 0.4754 0.3095 -0.8235
vn 0.0000 0.3095 -0.9509
vn -0.4754 0.3095 -0.8235
vn -0.8235 0.3095 -0.4754
vn -0.9509 0.3095 0.0000
vn 0.6752 0.6262 -0.3898
vn 0.7796 0.6262 0.0000
vn 0.3898 0.6262 -0.6752
vn 0.0000 0.6262 -0.7796
vn -0.3898 0.6262 -0.6752
vn -0.6752 0.6262 -0.3898
vn -0.7796 0.6262 0.0000
vn -0.9666 -0.2561 0.0000
vn -0.9922 -0.1244 0.0000
vn -0.8593 -0.1244 -0.4961
vn -0.8371 -0.2561 -0.4833
vn -0.4961 -0.1244 -0.8593
vn -0.4833 -0.2561 -0.8371
vn 0.0000 -0.1244 -0.9922
vn 0.0000 -0.2561 -0.9666
vn 0.4961 -0.1244 -0.8593
vn 0.4833 -0.2561 -0.8371
vn 0.8593 -0.1244 -0.4961
vn 0.8371 -0.2561 -0.4833
vn 0.9922 -0.1244 0.0000
vn 0.9666 -0.2561 0.0000
vn 0.0000 1.0000 0.0000
vn 0.0000 -1.0000 0.0000
vn -0.8614 0.1031 0.4973
vn -0.4973 0.1031 0.8614
vn 0.0000 0.1031 0.9947
vn 0.4973 0.1031 0.8614
vn 0.8614 0.1031 0.4973
vn 0.8660 0.0041 0.5000
vn 0.8630 0.0832 0.4982
vn 0.5000 0.0041 0.8660
vn 0.4982 0.0832 0.8630
vn 0.0000 0.0041 1.0000
vn 0.0000 0.0832 0.9965
vn -0.5000 0.0041 0.8660
vn -0.4982 0.0832 0.8630
vn -0.8660 0.0041 0.5000
vn -0.8630 0.0832 0.4982
vn 0.8433 0.2276 0.4869
vn 0.8338 0.2701 0.4814
vn 0.4869 0.2276 0.8433
vn 0.4814 0.2701 0.8338
vn 0.0000 0.2276 0.9737
vn 0.0000 0.2701 0.9628
vn -0.4869 0.2276 0.8433
vn -0.4814 0.2701 0.8338
vn -0.8433 0.2276 0.4869
vn -0.8338 0.2701 0.4814
vn 0.8554 0.1557 0.4939
vn 0.4939 0.1557 0.8554
vn 0.0000 0.1557 0.9878
vn -0.4939 0.1557 0.8554
vn -0.8554 0.1557 0.4939
vn 0.8643 0.0632 0.4990
vn 0.4990 0.0632 0.8643
vn 0.0000 0.0632 0.9980
vn -0.4990 0.0632 0.8643
vn -0.8643 0.0632 0.4990
vn 0.7623 -0.4745 0.4401
vn 0.8402 -0.2422 0.4851
vn 0.4401 -0.4745 0.7623
vn 0.4851 -0.2422 0.8402
vn 0.0000 -0.4745 0.8802
vn 0.0000 -0.2422 0.9702
vn -0.4401 -0.4745 0.7623
vn -0.4851 -0.2422 0.8402
vn -0.7623 -0.4745 0.4401
vn -0.8402 -0.2422 0.4851
vn 0.8235 0.3095 0.4754
vn 0.4754 0.3095 0.8235
vn 0.0000 0.3095 0.9509
vn -0.4754 0.3095 0.8235
vn -0.8235 0.3095 0.4754
vn 0.6752 0.6262 0.3898
vn 0.3898 0.6262 0.6752
vn 0.0000 0.6262 0.7796
vn -0.3898 0.6262 0.6752
vn -0.6752 0.6262 0.3898
vn -0.8371 -0.2561 0.4833
vn -0.8593 -0.1244 0.4961
vn -0.4833 -0.2561 0.8371
vn -0.4961 -0.1244 0.8593
vn 0.0000 -0.2561 0.9666
vn 0.0000 -0.1244 0.9922
vn 0.4833 -0.2561 0.8371
vn 0.4961 -0.1244 0.8593
vn 0.8371 -0.2561 0.4833
vn 0.8593 -0.1244 0.4961
vn 0.7071 0.0040 -0.7071
vn -0.7071 0.0040 -0.7071
usemtl Material.002
s 1
f 124/1/1 160/2/1 159/3/2 46/4/2
f 46/4/2 159/3/2 162/5/3 47/6/3
f 47/6/3 162/5/3 164/7/4 48/8/4
f 48/8/4 164/7/4 166/9/5 49/10/5
f 49/10/5 166/9/5 168/11/6 50/12/6
f 50/12/6 168/11/6 170/13/7 130/14/7
f 60/15/8 15/16/9 81/17/10 146/18/11
f 59/19/12 14/20/13 15/16/9 60/15/8
f 58/21/14 13/22/15 14/20/13 59/19/12
f 57/23/16 12/24/17 13/22/15 58/21/14
f 56/25/18 11/26/19 12/24/17 57/23/16
f 140/27/20 75/28/21 11/26/19 56/25/18
f 25/29/22 20/30/23 88/31/24 95/32/25
f 24/33/26 19/34/27 20/30/23 25/29/22
f 23/35/28 18/36/29 19/34/27 24/33/26
f 22/37/30 17/38/31 18/36/29 23/35/28
f 21/39/32 16/40/33 17/38/31 22/37/30
f 89/41/34 82/42/35 16/40/33 21/39/32
f 75/28/21 89/41/34 21/39/32 11/26/19
f 11/26/19 21/39/32 22/37/30 12/24/17
f 12/24/17 22/37/30 23/35/28 13/22/15
f 13/22/15 23/35/28 24/33/26 14/20/13
f 14/20/13 24/33/26 25/29/22 15/16/9
f 15/16/9 25/29/22 95/32/25 81/17/10
f 20/30/23 30/43/36 102/44/37 88/31/24
f 19/34/27 29/45/38 30/43/36 20/30/23
f 18/36/29 28/46/39 29/45/38 19/34/27
f 17/38/31 27/47/40 28/46/39 18/36/29
f 16/40/33 26/48/41 27/47/40 17/38/31
f 82/42/35 96/49/42 26/48/41 16/40/33
f 30/50/36 171/51/43 172/52/44 102/53/37
f 29/54/38 173/55/45 171/51/43 30/50/36
f 28/56/39 174/57/46 173/55/45 29/54/38
f 27/58/40 175/59/47 174/57/46 28/56/39
f 26/60/41 176/61/48 175/59/47 27/58/40
f 96/62/42 177/63/49 176/61/48 26/60/41
f 35/64/50 40/65/51 116/66/52 109/67/53
f 34/68/54 39/69/55 40/65/51 35/64/50
f 33/70/56 38/71/57 39/69/55 34/68/54
f 32/72/58 37/73/59 38/71/57 33/70/56
f 31/74/60 36/75/61 37/73/59 32/72/58
f 103/76/62 110/77/63 36/75/61 31/74/60
f 40/65/51 45/78/64 123/79/65 116/66/52
f 39/69/55 44/80/66 45/78/64 40/65/51
f 38/71/57 43/81/67 44/80/66 39/69/55
f 37/73/59 42/82/68 43/81/67 38/71/57
f 36/75/61 41/83/69 42/82/68 37/73/59
f 110/77/63 117/84/70 41/83/69 36/75/61
f 45/78/64 178/85/71 179/86/72 123/79/65
f 44/80/66 180/87/73 178/85/71 45/78/64
f 43/81/67 181/88/74 180/87/73 44/80/66
f 42/82/68 182/89/75 181/88/74 43/81/67
f 41/83/69 183/90/76 182/89/75 42/82/68
f 117/84/70 184/91/77 183/90/76 41/83/69
f 157/92/78 131/93/79 51/94/80 158/95/81
f 158/95/81 51/94/80 52/96/82 161/97/83
f 161/97/83 52/96/82 53/98/84 163/99/85
f 163/99/85 53/98/84 54/100/86 165/101/87
f 165/101/87 54/100/86 55/102/88 167/103/89
f 167/103/89 55/102/88 137/104/90 169/105/91
f 6/106/92 138/107/92 8/108/92
f 62/109/92 138/107/92 2/110/92
f 8/108/92 138/107/92 10/111/92
f 4/112/92 138/107/92 6/106/92
f 2/110/92 138/107/92 4/112/92
f 10/111/92 138/107/92 74/113/92
f 5/114/93 139/115/93 3/116/93
f 73/117/93 139/115/93 9/118/93
f 7/119/93 139/115/93 5/114/93
f 9/118/93 139/115/93 7/119/93
f 3/116/93 139/115/93 1/120/93
f 1/120/93 139/115/93 61/121/93
f 131/93/79 140/27/20 56/25/18 51/94/80
f 51/94/80 56/25/18 57/23/16 52/96/82
f 52/96/82 57/23/16 58/21/14 53/98/84
f 53/98/84 58/21/14 59/19/12 54/100/86
f 54/100/86 59/19/12 60/15/8 55/102/88
f 55/102/88 60/15/8 146/18/11 137/104/90
f 124/1/1 125/122/94 186/123/94 160/2/1
f 125/122/94 126/124/95 188/125/95 186/123/94
f 126/124/95 127/126/96 190/127/96 188/125/95
f 127/126/96 128/128/97 192/129/97 190/127/96
f 128/128/97 129/130/98 194/131/98 192/129/97
f 129/130/98 130/14/7 170/13/7 194/131/98
f 145/132/99 146/18/11 81/17/10 80/133/100
f 144/134/101 145/132/99 80/133/100 79/135/102
f 143/136/103 144/134/101 79/135/102 78/137/104
f 142/138/105 143/136/103 78/137/104 77/139/106
f 141/140/107 142/138/105 77/139/106 76/141/108
f 140/27/20 141/140/107 76/141/108 75/28/21
f 94/142/109 95/32/25 88/31/24 87/143/110
f 93/144/111 94/142/109 87/143/110 86/145/112
f 92/146/113 93/144/111 86/145/112 85/147/114
f 91/148/115 92/146/113 85/147/114 84/149/116
f 90/150/117 91/148/115 84/149/116 83/151/118
f 89/41/34 90/150/117 83/151/118 82/42/35
f 75/28/21 76/141/108 90/150/117 89/41/34
f 76/141/108 77/139/106 91/148/115 90/150/117
f 77/139/106 78/137/104 92/146/113 91/148/115
f 78/137/104 79/135/102 93/144/111 92/146/113
f 79/135/102 80/133/100 94/142/109 93/144/111
f 80/133/100 81/17/10 95/32/25 94/142/109
f 87/143/110 88/31/24 102/44/37 101/152/119
f 86/145/112 87/143/110 101/152/119 100/153/120
f 85/147/114 86/145/112 100/153/120 99/154/121
f 84/149/116 85/147/114 99/154/121 98/155/122
f 83/151/118 84/149/116 98/155/122 97/156/123
f 82/42/35 83/151/118 97/156/123 96/49/42
f 101/157/119 102/53/37 172/52/44 195/158/124
f 100/159/120 101/157/119 195/158/124 196/160/125
f 99/161/121 100/159/120 196/160/125 197/162/126
f 98/163/122 99/161/121 197/162/126 198/164/127
f 97/165/123 98/163/122 198/164/127 199/166/128
f 96/62/42 97/165/123 199/166/128 177/63/49
f 108/167/129 109/67/53 116/66/52 115/168/130
f 107/169/131 108/167/129 115/168/130 114/170/132
f 106/171/133 107/169/131 114/170/132 113/172/134
f 105/173/135 106/171/133 113/172/134 112/174/136
f 104/175/137 105/173/135 112/174/136 111/176/138
f 103/76/62 104/175/137 111/176/138 110/77/63
f 115/168/130 116/66/52 123/79/65 122/177/139
f 114/170/132 115/168/130 122/177/139 121/178/140
f 113/172/134 114/170/132 121/178/140 120/179/141
f 112/174/136 113/172/134 120/179/141 119/180/142
f 111/176/138 112/174/136 119/180/142 118/181/143
f 110/77/63 111/176/138 118/181/143 117/84/70
f 122/177/139 123/79/65 179/86/72 200/182/144
f 121/178/140 122/177/139 200/182/144 201/183/145
f 120/179/141 121/178/140 201/183/145 202/184/146
f 119/180/142 120/179/141 202/184/146 203/185/147
f 118/181/143 119/180/142 203/185/147 204/186/148
f 117/84/70 118/181/143 204/186/148 184/91/77
f 157/92/78 185/187/149 132/188/150 131/93/79
f 185/187/149 187/189/151 133/190/152 132/188/150
f 187/189/151 189/191/153 134/192/154 133/190/152
f 189/191/153 191/193/155 135/194/156 134/192/154
f 191/193/155 193/195/157 136/196/158 135/194/156
f 193/195/157 169/105/91 137/104/90 136/196/158
f 68/197/92 70/198/92 138/107/92
f 62/109/92 64/199/92 138/107/92
f 70/198/92 72/200/92 138/107/92
f 66/201/92 68/197/92 138/107/92
f 64/199/92 66/201/92 138/107/92
f 72/200/92 74/113/92 138/107/92
f 67/202/93 65/203/93 139/115/93
f 73/117/93 71/204/93 139/115/93
f 69/205/93 67/202/93 139/115/93
f 71/204/93 69/205/93 139/115/93
f 65/203/93 63/206/93 139/115/93
f 63/206/93 61/121/93 139/115/93
f 131/93/79 132/188/150 141/140/107 140/27/20
f 132/188/150 133/190/152 142/138/105 141/140/107
f 133/190/152 134/192/154 143/136/103 142/138/105
f 134/192/154 135/194/156 144/134/101 143/136/103
f 135/194/156 136/196/158 145/132/99 144/134/101
f 136/196/158 137/104/90 146/18/11 145/132/99
f 155/207/12 150/208/12 151/209/159 156/210/159
f 154/211/14 149/212/14 150/208/12 155/207/12
f 153/213/16 148/214/16 149/212/14 154/211/14
f 152/215/160 147/216/160 148/214/16 153/213/16
